<svg width="48" height="48" viewBox="0 0 48 48" fill="none" xmlns="http://www.w3.org/2000/svg">
<g id="Group 45">
<circle id="Ellipse 1868" cx="24" cy="24" r="24" fill="white"/>
<path id="Icon" d="M23.6827 27.3365C24.1731 27.3365 24.5769 26.9327 24.5769 26.4615V16.7788L24.5 15.3462L25.0962 16.0481L26.4519 17.4904C26.6058 17.6635 26.8269 17.75 27.0481 17.75C27.4808 17.75 27.8365 17.4327 27.8365 16.9808C27.8365 16.75 27.75 16.5769 27.5865 16.4135L24.3558 13.3077C24.1346 13.0769 23.9231 13 23.6827 13C23.4519 13 23.2404 13.0769 23.0192 13.3077L19.7885 16.4135C19.625 16.5769 19.5288 16.75 19.5288 16.9808C19.5288 17.4327 19.8846 17.75 20.3173 17.75C20.5385 17.75 20.7692 17.6635 20.9231 17.4904L22.2692 16.0481L22.875 15.3462L22.7981 16.7788V26.4615C22.7981 26.9327 23.2019 27.3365 23.6827 27.3365ZM18.1538 35H29.2212C31.2981 35 32.375 33.9327 32.375 31.8846V22.4135C32.375 20.3654 31.2981 19.2981 29.2212 19.2981H26.6154V21.1827H29.1058C29.9904 21.1827 30.4904 21.6442 30.4904 22.5769V31.7212C30.4904 32.6538 29.9904 33.1154 29.1058 33.1154H18.2692C17.375 33.1154 16.8846 32.6538 16.8846 31.7212V22.5769C16.8846 21.6442 17.375 21.1827 18.2692 21.1827H20.7788V19.2981H18.1538C16.0769 19.2981 15 20.3654 15 22.4135V31.8846C15 33.9327 16.0769 35 18.1538 35Z" fill="#3C2929"/>
</g>
</svg>
