<svg width="80" height="80" viewBox="0 0 80 80" fill="none" xmlns="http://www.w3.org/2000/svg">
<g clip-path="url(#clip0_88_3206)">
<path d="M72.453 70.4683L63.4944 73.8185L60.5296 64.7264L57.5648 73.8185L48.6086 70.4683L51.7291 75.2045L53.8686 78.4534L45.6636 83.3676L55.188 84.2348L53.9131 93.7122L60.5296 86.8067L67.146 93.7122L65.8711 84.2348L75.3955 83.3676L67.1905 78.4534L69.33 75.2045L72.453 70.4683Z" fill="white"/>
<path d="M77.2156 36.8029L68.257 33.4503L73.5195 41.4379L65.312 46.3496L74.8389 47.2168L73.5641 56.6967L80.0001 49.9765V28.2594L77.2156 36.8029Z" fill="white"/>
<path d="M34.2188 41.438L26.0137 46.3496L35.5381 47.2168L34.2632 56.6967L40.8797 49.7888L47.4961 56.6967L46.2212 47.2168L55.7456 46.3496L47.5406 41.438L52.8006 33.4503L43.8445 36.803L40.8797 27.7085L37.9149 36.803L28.9587 33.4503L34.2188 41.438Z" fill="white"/>
<path d="M55.188 10.2014L53.9131 19.6788L60.5296 12.7733L67.146 19.6788L65.8711 10.2014L75.3955 9.33416L67.1905 4.42002L69.33 1.17109L70.1009 0H50.9582L51.7291 1.17109L53.8686 4.42002L45.6636 9.33416L55.188 10.2014Z" fill="white"/>
<path d="M15.8896 10.2014L14.6148 19.6788L21.2312 12.7733L27.8477 19.6788L26.5728 10.2014L36.0972 9.33416L27.8897 4.42002L30.0317 1.17109L30.8026 0H11.6599L12.4282 1.17109L14.5703 4.42002L6.36523 9.33416L15.8896 10.2014Z" fill="white"/>
<path d="M21.2312 86.8067L27.8477 93.7122L26.5728 84.2348L36.0972 83.3676L27.8897 78.4534L30.0317 75.2045L33.1522 70.4683L24.1936 73.8185L21.2312 64.7264L18.2664 73.8185L9.30783 70.4683L12.4282 75.2045L14.5703 78.4534L6.36523 83.3676L15.8896 84.2348L14.6148 93.7122L21.2312 86.8067Z" fill="white"/>
<path d="M6.3644 54.782L8.19519 56.6967L6.92029 47.2168L16.4472 46.3496L8.23965 41.438L13.5022 33.4503L6.3644 36.1211L4.54355 36.803L1.57876 27.7085L0 32.5559V51.4392L1.57876 49.7888L6.3644 54.782Z" fill="white"/>
</g>
<defs>
<clipPath id="clip0_88_3206">
<rect width="80" height="80" fill="white"/>
</clipPath>
</defs>
</svg>
