<svg width="80" height="80" viewBox="0 0 80 80" fill="none" xmlns="http://www.w3.org/2000/svg">
<g clip-path="url(#clip0_88_3221)">
<path d="M64.5751 0H59.3706L64.5751 8.98523L69.7795 0H64.5751Z" fill="white"/>
<path d="M88.1867 49.7529H64.5742L70.4789 59.9423L76.3805 70.1343L82.2851 59.9423L88.1867 49.7529Z" fill="white"/>
<path d="M76.3804 29.3691L88.1866 49.7531L99.9959 29.3691H76.3804Z" fill="white"/>
<path d="M64.5743 29.3691H52.7681L64.5743 49.7531L76.3806 29.3691H64.5743Z" fill="white"/>
<path d="M76.3805 29.3693L82.2851 19.1773L88.1867 8.98535H64.5742L70.4789 19.1773L76.3805 29.3693Z" fill="white"/>
<path d="M85.1919 85.3484H91.1814L99.9959 70.1348H76.3804L85.1919 85.3484Z" fill="white"/>
<path d="M35.7549 0L40.9624 8.98523L46.1668 0H35.7549Z" fill="white"/>
<path d="M17.346 0H12.1416L17.346 8.98523L22.5535 0H17.346Z" fill="white"/>
<path d="M64.5744 49.7529H40.9619L46.8635 59.9423L52.7682 70.1343L58.6698 59.9423L64.5744 49.7529Z" fill="white"/>
<path d="M40.9607 49.7529H17.3452L23.2499 59.9423L29.1515 70.1343L35.0561 59.9423L40.9607 49.7529Z" fill="white"/>
<path d="M29.1533 29.3691L40.9626 49.7531L52.7688 29.3691H29.1533Z" fill="white"/>
<path d="M17.3468 29.3691H5.54053L17.3468 49.7531L29.153 29.3691H17.3468Z" fill="white"/>
<path d="M52.7682 29.3693L58.6698 19.1773L64.5744 8.98535H40.9619L46.8635 19.1773L52.7682 29.3693Z" fill="white"/>
<path d="M29.1515 29.3693L35.0561 19.1773L40.9607 8.98535H17.3452L23.2499 19.1773L29.1515 29.3693Z" fill="white"/>
<path d="M52.7681 70.1348L61.5796 85.3484H64.5743H67.5691L76.3806 70.1348H64.5743H52.7681Z" fill="white"/>
<path d="M37.9678 85.3484H43.9574L52.7688 70.1348H29.1533L37.9678 85.3484Z" fill="white"/>
<path d="M17.3471 8.98523H0V19.1772V19.8023L5.5409 29.3692L11.4455 19.1772L17.3471 8.98523Z" fill="white"/>
<path d="M17.3471 49.7531H0V59.9425V60.5676L5.5409 70.1344L11.4455 59.9425L17.3471 49.7531Z" fill="white"/>
<path d="M0 38.9361L5.5409 29.3693H0V38.9361Z" fill="white"/>
<path d="M5.54053 70.1348L14.352 85.3484H17.3468H20.3415L29.153 70.1348H17.3468H5.54053Z" fill="white"/>
<path d="M0 79.7013L5.5409 70.1345H0V79.7013Z" fill="white"/>
</g>
<defs>
<clipPath id="clip0_88_3221">
<rect width="80" height="80" fill="white"/>
</clipPath>
</defs>
</svg>
