<svg width="80" height="80" viewBox="0 0 80 80" fill="none" xmlns="http://www.w3.org/2000/svg">
<g clip-path="url(#clip0_490_2418)">
<path d="M51.5516 18.5206C48.5821 21.5307 41.0615 40.0001 41.0615 40.0001C41.0615 40.0001 59.59 32.0585 62.5595 29.0484C65.5289 26.0382 65.4703 21.2413 62.4319 18.3327C59.3936 15.4267 54.521 15.5104 51.5516 18.5206Z" stroke="white" stroke-width="3" stroke-miterlimit="10" stroke-linecap="round" stroke-linejoin="round"/>
<path d="M29.37 18.5206C32.3394 21.5307 39.86 40.0001 39.86 40.0001C39.86 40.0001 21.3315 32.0585 18.362 29.0484C15.3926 26.0382 15.4513 21.2413 18.4896 18.3327C21.5305 15.4267 26.4005 15.5104 29.37 18.5206Z" stroke="white" stroke-width="3" stroke-miterlimit="10" stroke-linecap="round" stroke-linejoin="round"/>
<path d="M29.3695 61.4815C32.3389 58.4714 39.8595 40.0021 39.8595 40.0021C39.8595 40.0021 21.331 47.9436 18.3616 50.9537C15.3921 53.9638 15.4508 58.7607 18.4891 61.6693C21.5275 64.5779 26.4 64.4916 29.3695 61.4815Z" stroke="white" stroke-width="3" stroke-miterlimit="10" stroke-linecap="round" stroke-linejoin="round"/>
<path d="M51.5516 61.4815C48.5821 58.4714 41.0615 40.0021 41.0615 40.0021C41.0615 40.0021 59.59 47.9436 62.5595 50.9537C65.5289 53.9638 65.4703 58.7607 62.4319 61.6693C59.3936 64.5754 54.521 64.4916 51.5516 61.4815Z" stroke="white" stroke-width="3" stroke-miterlimit="10" stroke-linecap="round" stroke-linejoin="round"/>
<path d="M33.1136 16.968C33.1424 21.1962 40.8844 39.5739 40.8844 39.5739C40.8844 39.5739 48.3704 20.8568 48.3417 16.6286C48.3129 12.4004 44.8795 9.04993 40.6744 9.14167C36.4711 9.2352 33.0849 12.7398 33.1136 16.968Z" stroke="white" stroke-width="3" stroke-miterlimit="10" stroke-linecap="round" stroke-linejoin="round"/>
<path d="M17.429 32.6532C21.6572 32.682 40.0349 40.424 40.0349 40.424C40.0349 40.424 21.3178 47.9101 17.0896 47.8813C12.8614 47.8525 9.51093 44.4191 9.60266 40.214C9.698 36.0089 13.2008 32.6245 17.429 32.6532Z" stroke="white" stroke-width="3" stroke-miterlimit="10" stroke-linecap="round" stroke-linejoin="round"/>
<path d="M47.807 63.0314C47.7782 58.8032 40.0363 40.4256 40.0363 40.4256C40.0363 40.4256 32.5502 59.1427 32.5789 63.3709C32.6077 67.5991 36.0411 70.9496 40.2462 70.8578C44.4513 70.7661 47.8357 67.2596 47.807 63.0314Z" stroke="white" stroke-width="3" stroke-miterlimit="10" stroke-linecap="round" stroke-linejoin="round"/>
<path d="M63.4921 47.3464C59.2639 47.3176 40.8862 39.5757 40.8862 39.5757C40.8862 39.5757 59.6034 32.0896 63.8316 32.1183C68.0598 32.1471 71.4102 35.5805 71.3184 39.7856C71.2249 43.9889 67.7203 47.3751 63.4921 47.3464Z" stroke="white" stroke-width="3" stroke-miterlimit="10" stroke-linecap="round" stroke-linejoin="round"/>
</g>
<defs>
<clipPath id="clip0_490_2418">
<rect width="80" height="80" fill="white"/>
</clipPath>
</defs>
</svg>
