<svg width="80" height="80" viewBox="0 0 80 80" fill="none" xmlns="http://www.w3.org/2000/svg">
<path d="M39.7057 44.7821C39.7057 44.7821 15.5226 43.8529 9.58509 39.7106C3.64457 35.5654 2.21774 27.4317 6.39519 21.5396C10.5726 15.6476 18.773 14.2326 24.7136 18.3749C30.6541 22.5201 39.7057 44.7821 39.7057 44.7821Z" stroke="white" stroke-width="3" stroke-miterlimit="10" stroke-linecap="round" stroke-linejoin="round"/>
<path d="M41.2388 44.7821C41.2388 44.7821 65.4219 43.8529 71.3594 39.7106C77.2999 35.5654 78.7268 27.4317 74.5493 21.5396C70.3719 15.6476 62.1715 14.2326 56.2309 18.3749C50.2904 22.5171 41.2388 44.7821 41.2388 44.7821Z" stroke="white" stroke-width="3" stroke-miterlimit="10" stroke-linecap="round" stroke-linejoin="round"/>
<path d="M23.0322 64.0001L40.4752 44.7822L59.0934 62.2714" stroke="white" stroke-width="3" stroke-miterlimit="10" stroke-linecap="round" stroke-linejoin="round"/>
</svg>
